<svg width="22" height="46" viewBox="0 0 22 46" fill="none" xmlns="http://www.w3.org/2000/svg">
<path d="M0 40.7028C0 43.1088 2.0249 45.0662 4.51389 45.0662H17.1528C19.6418 45.0662 21.6667 43.1088 21.6667 40.7028V20.4565C21.6667 18.7166 20.6077 17.2119 19.0803 16.5121C19.5684 15.9165 19.8611 15.1648 19.8611 14.3477C19.8611 13.0861 19.1558 11.9386 18.0545 11.3244C18.0552 11.0837 18.0556 10.8614 18.0556 10.857C18.0556 9.23911 16.9539 8.36404 15.9816 7.59192C14.7819 6.63912 13.5417 5.65394 13.5417 3.0335V3.00282C13.5417 1.55914 12.3268 0.384766 10.8333 0.384766C9.33987 0.384766 8.125 1.55914 8.125 3.00282C8.125 5.65326 6.87099 6.66128 5.65858 7.63589C4.69903 8.40733 3.61111 9.28172 3.61111 10.857C3.61111 10.8614 3.61146 11.0837 3.61217 11.3247C2.51015 11.9397 1.80556 13.0868 1.80556 14.3477C1.80556 15.1648 2.09825 15.9165 2.58632 16.5121C1.059 17.2119 0 18.7166 0 20.4565V26.8271C0 27.3091 0.404134 27.6998 0.902778 27.6998C1.40142 27.6998 1.80556 27.3091 1.80556 26.8271V20.4565C1.80556 19.0128 3.02043 17.8385 4.51389 17.8385H17.1528C18.6462 17.8385 19.8611 19.0128 19.8611 20.4565V21.8528H15.3472C14.8486 21.8528 14.4444 22.2435 14.4444 22.7255C14.4444 23.2075 14.8486 23.5982 15.3472 23.5982H19.8611V27.0889H15.3472C14.8486 27.0889 14.4444 27.4796 14.4444 27.9616C14.4444 28.4436 14.8486 28.8343 15.3472 28.8343H19.8611V32.325H15.3472C14.8486 32.325 14.4444 32.7157 14.4444 33.1977C14.4444 33.6798 14.8486 34.0704 15.3472 34.0704H19.8611V37.5612H15.3472C14.8486 37.5612 14.4444 37.9518 14.4444 38.4338C14.4444 38.9159 14.8486 39.3065 15.3472 39.3065H19.8611V40.7028C19.8611 42.1465 18.6462 43.3209 17.1528 43.3209H4.51389C3.02043 43.3209 1.80556 42.1465 1.80556 40.7028V33.8086C1.80556 33.3266 1.40142 32.9359 0.902778 32.9359C0.404134 32.9359 0 33.3266 0 33.8086V40.7028ZM6.8128 8.97799C8.12853 7.9202 9.93056 6.47175 9.93056 3.00282C9.93056 2.52148 10.3354 2.13014 10.8333 2.13014C11.3313 2.13014 11.7361 2.52148 11.7361 3.00282V3.0335C11.7361 6.4789 13.5276 7.90179 14.8352 8.94049C15.7651 9.67886 16.25 10.0992 16.25 10.857H5.41667C5.41667 10.134 5.89556 9.71534 6.8128 8.97799ZM5.41667 12.6024H16.25C17.248 12.6024 18.0556 13.3868 18.0556 14.3477C18.0556 15.3101 17.2455 16.0931 16.25 16.0931H5.41667C4.42114 16.0931 3.61111 15.3101 3.61111 14.3477C3.61111 13.3857 4.42044 12.6024 5.41667 12.6024Z" fill="#DFAB7B"/>
</svg>
