<svg width="26" height="54" viewBox="0 0 26 54" fill="none" xmlns="http://www.w3.org/2000/svg">
<path d="M0 48.3817C0 51.2689 2.42988 53.6178 5.41667 53.6178H20.5833C23.5701 53.6178 26 51.2689 26 48.3817V24.0861C26 21.9982 24.7292 20.1926 22.8964 19.3527C23.4821 18.6381 23.8333 17.7361 23.8333 16.7556C23.8333 15.2416 22.987 13.8647 21.6654 13.1275C21.6662 12.8387 21.6667 12.572 21.6667 12.5667C21.6667 10.6252 20.3447 9.57513 19.178 8.64858C17.7383 7.50523 16.25 6.32301 16.25 3.17848V3.14167C16.25 1.40925 14.7922 0 13 0C11.2078 0 9.75 1.40925 9.75 3.14167C9.75 6.3222 8.24518 7.53182 6.7903 8.70135C5.63883 9.62708 4.33333 10.6763 4.33333 12.5667C4.33333 12.572 4.33376 12.8387 4.3346 13.1279C3.01217 13.8659 2.16667 15.2424 2.16667 16.7556C2.16667 17.7361 2.5179 18.6381 3.10358 19.3527C1.2708 20.1926 0 21.9982 0 24.0861V31.7308C0 32.3093 0.484961 32.7781 1.08333 32.7781C1.68171 32.7781 2.16667 32.3093 2.16667 31.7308V24.0861C2.16667 22.3537 3.62451 20.9444 5.41667 20.9444H20.5833C22.3755 20.9444 23.8333 22.3537 23.8333 24.0861V25.7617H18.4167C17.8183 25.7617 17.3333 26.2305 17.3333 26.8089C17.3333 27.3873 17.8183 27.8561 18.4167 27.8561H23.8333V32.045H18.4167C17.8183 32.045 17.3333 32.5138 17.3333 33.0922C17.3333 33.6707 17.8183 34.1394 18.4167 34.1394H23.8333V38.3283H18.4167C17.8183 38.3283 17.3333 38.7971 17.3333 39.3756C17.3333 39.954 17.8183 40.4228 18.4167 40.4228H23.8333V44.6117H18.4167C17.8183 44.6117 17.3333 45.0805 17.3333 45.6589C17.3333 46.2373 17.8183 46.7061 18.4167 46.7061H23.8333V48.3817C23.8333 50.1141 22.3755 51.5233 20.5833 51.5233H5.41667C3.62451 51.5233 2.16667 50.1141 2.16667 48.3817V40.1086C2.16667 39.5302 1.68171 39.0614 1.08333 39.0614C0.484961 39.0614 0 39.5302 0 40.1086V48.3817ZM8.17536 10.3119C9.75423 9.04252 11.9167 7.30438 11.9167 3.14167C11.9167 2.56406 12.4025 2.09444 13 2.09444C13.5975 2.09444 14.0833 2.56406 14.0833 3.14167V3.17848C14.0833 7.31297 16.2331 9.02043 17.8022 10.2669C18.9181 11.1529 19.5 11.6573 19.5 12.5667H6.5C6.5 11.699 7.07467 11.1967 8.17536 10.3119ZM6.5 14.6611H19.5C20.6976 14.6611 21.6667 15.6024 21.6667 16.7556C21.6667 17.9104 20.6946 18.85 19.5 18.85H6.5C5.30537 18.85 4.33333 17.9104 4.33333 16.7556C4.33333 15.6012 5.30452 14.6611 6.5 14.6611Z" fill="#ADADAD"/>
</svg>
