<svg width="53" height="53" viewBox="0 0 53 53" fill="none" xmlns="http://www.w3.org/2000/svg">
<path d="M53 26.5C53 11.8879 41.1121 0 26.5 0C11.8879 0 0 11.8879 0 26.5C0 41.1121 11.8879 53 26.5 53C29.7533 53 32.8697 52.4073 35.7511 51.3305L35.7405 51.3932L37.2546 50.7192C37.3774 50.6645 37.4966 50.6026 37.6185 50.5461C37.8181 50.4534 38.0169 50.3597 38.2139 50.2626C38.4206 50.1601 38.6246 50.055 38.8287 49.9472C39.0062 49.8536 39.1829 49.7582 39.3578 49.661C39.5778 49.5382 39.7959 49.4128 40.0132 49.2838C40.1608 49.1964 40.3065 49.1072 40.4514 49.0171C40.6908 48.8687 40.9284 48.7167 41.1633 48.5604C41.2746 48.4862 41.385 48.4102 41.4946 48.3342C41.6509 48.2265 41.8108 48.124 41.9654 48.0136L42.3391 47.7442V47.7336C48.8059 42.8964 53 35.1787 53 26.5ZM39.5477 40.9929C39.9717 42.6526 40.4584 44.823 40.5512 46.8388C40.4955 46.8776 40.4417 46.9183 40.386 46.9562C40.1316 47.1294 39.8728 47.2946 39.6122 47.458C39.4029 47.5896 39.1917 47.7168 38.9788 47.8422C38.7006 48.0056 38.4215 48.1664 38.137 48.3183C38.0884 48.3439 38.0381 48.3678 37.9895 48.3943C37.9922 48.3678 37.9957 48.3413 37.9983 48.3148C38.2104 46.4598 38.493 44.0015 39.5477 40.9929ZM42.2189 45.5826C41.9698 43.2277 41.3524 40.886 40.9478 39.3684C40.8621 39.0469 40.787 38.7642 40.7287 38.5319L40.5512 37.8199C42.2728 35.3227 43.2833 32.3477 43.2833 29.15C43.2833 23.0603 41.9795 20.7972 39.6131 16.6879C38.6617 15.0361 37.4781 12.9806 36.1266 10.2131C35.9128 9.77497 35.3863 9.59212 34.9455 9.80677C34.5074 10.0205 34.3255 10.5497 34.5401 10.9878C35.9181 13.8091 37.1177 15.8947 38.0831 17.5695C40.3692 21.5401 41.5167 23.5338 41.5167 29.15C41.5167 36.9428 34.7804 43.2833 26.5 43.2833C18.2196 43.2833 11.4833 36.9428 11.4833 29.15C11.4833 28.6615 11.0876 28.2667 10.6 28.2667C10.1124 28.2667 9.71667 28.6615 9.71667 29.15C9.71667 37.9171 17.2453 45.05 26.5 45.05C30.8071 45.05 34.7274 43.4918 37.7015 40.9566C36.7378 43.8875 36.4525 46.2849 36.2423 48.1116C36.1919 48.5471 36.1442 48.9331 36.093 49.2962C33.1418 50.5434 29.9 51.2333 26.5 51.2333C12.8622 51.2333 1.76667 40.1378 1.76667 26.5C1.76667 12.8622 12.8622 1.76667 26.5 1.76667C40.1378 1.76667 51.2333 12.8622 51.2333 26.5C51.2333 34.1735 47.7203 41.0423 42.2189 45.5826Z" fill="black"/>
<path d="M26.5 19.4333C21.6293 19.4333 17.6667 23.396 17.6667 28.2667C17.6667 33.1374 21.6293 37.1 26.5 37.1C31.3707 37.1 35.3334 33.1374 35.3334 28.2667C35.3334 23.396 31.3707 19.4333 26.5 19.4333ZM26.5 35.3333C22.6036 35.3333 19.4334 32.1631 19.4334 28.2667C19.4334 24.3703 22.6036 21.2 26.5 21.2C30.3964 21.2 33.5667 24.3703 33.5667 28.2667C33.5667 32.1631 30.3964 35.3333 26.5 35.3333Z" fill="#9A7B5E"/>
<path d="M26.5 24.7334C24.5514 24.7334 22.9667 26.3181 22.9667 28.2667C22.9667 30.2154 24.5514 31.8001 26.5 31.8001C28.4486 31.8001 30.0333 30.2154 30.0333 28.2667C30.0333 26.3181 28.4486 24.7334 26.5 24.7334ZM26.5 30.0334C25.5257 30.0334 24.7333 29.2411 24.7333 28.2667C24.7333 27.2924 25.5257 26.5001 26.5 26.5001C27.4743 26.5001 28.2667 27.2924 28.2667 28.2667C28.2667 29.2411 27.4743 30.0334 26.5 30.0334Z" fill="#9A7B5E"/>
</svg>
