<svg width="51" height="64" viewBox="0 0 51 64" fill="none" xmlns="http://www.w3.org/2000/svg">
<g clip-path="url(#clip0)">
<path d="M48.2153 18.4808L48.1669 18.481C45.7564 18.5047 42.6387 18.6405 39.9022 19.4879C39.6573 19.5637 39.42 19.6447 39.1891 19.7296C36.4146 18.6045 32.2507 18.0997 25.8051 18.0997C19.3594 18.0997 15.1952 18.6045 12.4209 19.7297C12.1897 19.6447 11.9527 19.5637 11.7078 19.4879C8.9714 18.6406 5.85341 18.5047 3.44287 18.481L3.39449 18.4808C0.730957 18.4808 0.730957 20.8087 0.730957 21.5736V41.592C0.730957 41.5976 0.732034 41.6029 0.73223 41.6086C0.732622 41.6438 0.735071 41.6791 0.739087 41.7146C0.740164 41.7222 0.740556 41.73 0.741535 41.7377C0.74751 41.7796 0.755639 41.8213 0.766805 41.8629C0.767687 41.8664 0.769058 41.8697 0.770037 41.8734C0.780028 41.9088 0.792075 41.9439 0.805983 41.9786C0.810881 41.991 0.816463 42.0028 0.821655 42.015C0.827629 42.0284 0.832526 42.0418 0.838991 42.055C0.906671 42.192 2.52453 45.4475 4.91117 48.7567C8.14024 53.2336 11.1668 55.5788 13.9124 55.7347C17.791 57.9342 21.0432 58.7569 25.805 58.7569C28.4618 58.7569 30.6481 58.5002 32.7358 57.8921C32.7767 57.8826 32.8168 57.8714 32.8558 57.8573C34.4671 57.3766 36.0242 56.6837 37.6974 55.7348C40.4431 55.5788 43.4696 53.2337 46.6986 48.7568C49.0854 45.4478 50.7029 42.1922 50.7708 42.0551C50.7774 42.042 50.7822 42.0285 50.7882 42.0151C50.7934 42.0029 50.7989 41.9911 50.8038 41.9787C50.8179 41.944 50.8302 41.9088 50.84 41.8735C50.841 41.8699 50.8424 41.8666 50.8434 41.863C50.8546 41.8215 50.8626 41.7797 50.8685 41.7377C50.8695 41.7301 50.8701 41.7223 50.8709 41.7146C50.8752 41.6792 50.8775 41.6439 50.8781 41.6085C50.8781 41.6029 50.8791 41.5976 50.8791 41.592V21.5736C50.8789 20.8087 50.8789 18.4808 48.2153 18.4808ZM2.82053 21.5736C2.82053 20.7855 2.9554 20.6359 2.95608 20.6353C2.95687 20.6348 3.04913 20.5705 3.39439 20.5705L3.4224 20.5706C5.69052 20.5928 8.61194 20.7167 11.0897 21.484C11.4117 21.5838 11.717 21.6917 12.0067 21.8076C12.0143 21.811 12.0222 21.8133 12.0299 21.8166C14.1171 22.657 15.3647 23.9229 15.832 25.6671C16.5291 28.2687 15.5303 30.7713 12.7787 33.318C11.9664 34.0698 11.0495 34.784 10.0759 35.465C10.0698 35.4691 10.0637 35.4734 10.0577 35.4777C7.98049 36.9286 5.64488 38.2287 3.50301 39.4206C3.27196 39.5492 3.04443 39.6758 2.82062 39.8007V21.5736H2.82053ZM3.16294 42.0046C3.59949 41.7587 4.05043 41.5071 4.51919 41.2464C6.2684 40.2729 8.19215 39.2021 10.0289 38.0088C10.3286 39.0757 10.6015 39.9926 10.8507 40.8295C11.9433 44.4989 12.5732 46.6155 13.0724 53.4642C9.3005 52.2586 5.05486 45.5618 3.16294 42.0046ZM36.4003 54.0672C35.4 54.6217 34.4513 55.0726 33.5033 55.4343C33.495 53.5496 33.6335 51.4493 33.7308 50.2166C33.7763 49.6415 33.347 49.1382 32.7717 49.0927C32.1966 49.0472 31.6932 49.4767 31.6476 50.052C31.5364 51.4584 31.3738 53.9635 31.4224 56.0849C29.7434 56.4956 27.9575 56.6673 25.8051 56.6673C21.4993 56.6673 18.6604 55.9803 15.2097 54.0673C14.6848 46.3845 13.9888 44.047 12.8534 40.2336C12.5546 39.2302 12.2215 38.1114 11.8499 36.7575C15.9896 33.7292 19.1467 29.9651 17.8503 25.1264C17.8474 25.1159 17.8441 25.1056 17.8412 25.095C19.3036 24.891 21.3899 24.7315 23.3382 24.687C23.915 24.6737 24.3722 24.1954 24.359 23.6186C24.3458 23.0417 23.8633 22.5879 23.2905 22.5979C20.9824 22.6507 18.5428 22.8541 16.9701 23.1144C16.4779 22.3434 15.8318 21.6675 15.0342 21.0888C17.5234 20.4785 21.0287 20.1895 25.805 20.1895C30.5811 20.1895 34.0866 20.4786 36.5757 21.0887C35.1456 22.1261 34.2018 23.4756 33.7596 25.1263C32.4632 29.9649 35.6201 33.7289 39.7598 36.7571C39.388 38.1115 39.055 39.2308 38.7562 40.2344C37.621 44.0477 36.9252 46.3849 36.4003 54.0672ZM45.004 47.534C42.6549 50.7911 40.4066 52.8389 38.5382 53.4556C39.0371 46.6144 39.6669 44.4982 40.7588 40.8306C41.0082 39.9934 41.281 39.0762 41.5808 38.0088C43.4178 39.2021 45.3415 40.273 47.0909 41.2466C47.5576 41.5063 48.007 41.7567 48.4419 42.0018C47.8111 43.1739 46.5708 45.3618 45.004 47.534ZM48.7895 39.8007C48.5658 39.6758 48.3383 39.5492 48.1073 39.4206C45.9716 38.2321 43.6431 36.9359 41.5704 35.4902C41.5619 35.484 41.5531 35.478 41.5441 35.4719C40.5668 34.7889 39.6465 34.0724 38.8315 33.3181C36.0797 30.7715 35.081 28.2688 35.778 25.6671C36.2451 23.9236 37.4921 22.6576 39.5783 21.8173C39.5866 21.8137 39.5952 21.8112 39.6036 21.8075C39.8931 21.6917 40.1982 21.5837 40.5201 21.4842C42.998 20.7168 45.9192 20.5928 48.1873 20.5707L48.2153 20.5706C48.5609 20.5706 48.653 20.6349 48.653 20.6349C48.6545 20.6363 48.7894 20.7855 48.7894 21.5738V39.8007H48.7895Z" fill="#DFAB7B"/>
<path d="M9.6563 30.6337C11.3846 30.6337 12.7906 29.2275 12.7906 27.4992C12.7906 25.7709 11.3846 24.3647 9.6563 24.3647C7.92786 24.3647 6.52185 25.7709 6.52185 27.4992C6.52185 29.2275 7.92786 30.6337 9.6563 30.6337ZM9.6563 26.4544C10.2322 26.4544 10.7009 26.9231 10.7009 27.4992C10.7009 28.0753 10.2322 28.544 9.6563 28.544C9.08019 28.544 8.61152 28.0753 8.61152 27.4992C8.61152 26.9232 9.08019 26.4544 9.6563 26.4544Z" fill="#DFAB7B"/>
<path d="M42.0067 24.3649C40.2783 24.3649 38.8723 25.771 38.8723 27.4993C38.8723 29.2277 40.2783 30.6338 42.0067 30.6338C43.7351 30.6338 45.1412 29.2277 45.1412 27.4993C45.1412 25.771 43.7351 24.3649 42.0067 24.3649ZM42.0067 28.5441C41.4306 28.5441 40.9619 28.0754 40.9619 27.4993C40.9619 26.9232 41.4306 26.4545 42.0067 26.4545C42.5828 26.4545 43.0515 26.9232 43.0515 27.4993C43.0515 28.0754 42.5828 28.5441 42.0067 28.5441Z" fill="#DFAB7B"/>
<path d="M26.4399 22.6374L26.414 22.636C25.8381 22.6002 25.3441 23.0367 25.3069 23.6115C25.2697 24.1874 25.7064 24.6843 26.2823 24.7215C26.2872 24.7218 26.3003 24.7225 26.3083 24.7229C26.3293 24.7242 26.3501 24.7247 26.371 24.7247C26.916 24.7246 27.3753 24.3018 27.4125 23.7498C27.4511 23.1742 27.0159 22.676 26.4399 22.6374Z" fill="#DFAB7B"/>
<path d="M33.1262 46.0967C32.5544 46.0214 32.0289 46.423 31.9531 46.9951L31.9403 47.0943C31.8677 47.6667 32.2728 48.1895 32.8453 48.2622C32.8901 48.2679 32.9343 48.2706 32.9781 48.2706C33.4965 48.2706 33.9464 47.885 34.0133 47.3572L34.0246 47.2698C34.1005 46.6978 33.6982 46.1726 33.1262 46.0967Z" fill="#DFAB7B"/>
</g>
<path d="M26.278 8.67713C31.0187 8.67713 35.3341 8.35735 38.4854 7.83213C40.0531 7.57086 41.3799 7.25122 42.3376 6.87384C42.8115 6.6871 43.2537 6.46388 43.5949 6.186C43.9237 5.91825 44.3094 5.47126 44.3094 4.83857C44.3094 4.20587 43.9237 3.75888 43.5949 3.49113C43.2537 3.21325 42.8115 2.99003 42.3376 2.80329C41.3799 2.42591 40.0531 2.10627 38.4854 1.845C35.3341 1.31978 31.0187 1 26.278 1C21.5374 1 17.2219 1.31978 14.0706 1.845C12.503 2.10627 11.1762 2.42591 10.2184 2.80329C9.74455 2.99003 9.30232 3.21325 8.96114 3.49113C8.63241 3.75888 8.24664 4.20587 8.24664 4.83857C8.24664 5.47126 8.63241 5.91825 8.96114 6.186C9.30232 6.46388 9.74455 6.6871 10.2184 6.87384C11.1762 7.25122 12.503 7.57086 14.0706 7.83213C17.2219 8.35735 21.5374 8.67713 26.278 8.67713Z" stroke="#DFAB7B" stroke-width="2"/>
<defs>
<clipPath id="clip0">
<rect width="50.148" height="50.148" fill="white" transform="translate(0.730957 13.3542)"/>
</clipPath>
</defs>
</svg>
