<svg width="50" height="50" viewBox="0 0 50 50" fill="none" xmlns="http://www.w3.org/2000/svg">
<g clip-path="url(#clip0)">
<path d="M47.3442 5.11143L47.296 5.11162C44.8926 5.13525 41.7841 5.27061 39.0556 6.11553C38.8115 6.19112 38.5749 6.27188 38.3446 6.35655C35.5783 5.23477 31.4267 4.73145 25.0002 4.73145C18.5735 4.73145 14.4215 5.23477 11.6555 6.35664C11.4249 6.27188 11.1886 6.19112 10.9445 6.11553C8.21613 5.2707 5.10733 5.13525 2.70391 5.11162L2.65567 5.11143C0 5.11143 0 7.43243 0 8.19503V28.1543C0 28.16 0.00107422 28.1653 0.00126953 28.1709C0.00166016 28.206 0.00410157 28.2413 0.00810548 28.2766C0.00917971 28.2842 0.00957033 28.2919 0.0105469 28.2997C0.0165039 28.3415 0.0246094 28.3831 0.0357423 28.4245C0.0366212 28.428 0.0379884 28.4313 0.0389649 28.4349C0.0489259 28.4703 0.0609376 28.5052 0.0748048 28.5399C0.0796877 28.5522 0.0852541 28.564 0.0904299 28.5761C0.0963869 28.5895 0.10127 28.6029 0.107715 28.6161C0.175196 28.7526 1.78829 31.9985 4.16788 35.2979C7.38742 39.7616 10.405 42.0999 13.1425 42.2553C17.0097 44.4483 20.2523 45.2686 25.0001 45.2686C27.649 45.2686 29.8289 45.0127 31.9104 44.4064C31.9511 44.397 31.9912 44.3857 32.03 44.3717C33.6366 43.8924 35.1891 43.2015 36.8574 42.2554C39.5949 42.0999 42.6125 39.7617 45.832 35.298C48.2117 31.9988 49.8245 28.7528 49.8922 28.6162C49.8987 28.6031 49.9035 28.5896 49.9095 28.5762C49.9147 28.5641 49.9202 28.5523 49.9251 28.54C49.9392 28.5053 49.9514 28.4703 49.9611 28.435C49.9622 28.4315 49.9636 28.4282 49.9646 28.4246C49.9757 28.3833 49.9837 28.3416 49.9896 28.2997C49.9906 28.292 49.9912 28.2843 49.992 28.2766C49.9963 28.2414 49.9985 28.2061 49.9991 28.1708C49.9991 28.1653 50.0002 28.16 50.0002 28.1543V8.19503C50 7.43243 50 5.11143 47.3442 5.11143ZM2.0834 8.19503C2.0834 7.40928 2.21788 7.26016 2.21856 7.25958C2.21934 7.25899 2.31133 7.19493 2.65557 7.19493L2.6835 7.19502C4.94493 7.21719 7.85773 7.34073 10.3281 8.10577C10.6492 8.20528 10.9536 8.3128 11.2425 8.42833C11.25 8.43175 11.2579 8.43409 11.2656 8.43731C13.3466 9.2753 14.5906 10.5374 15.0565 12.2765C15.7515 14.8704 14.7557 17.3657 12.0122 19.9048C11.2023 20.6544 10.2881 21.3664 9.3174 22.0454C9.31125 22.0495 9.30519 22.0538 9.29924 22.0581C7.22814 23.5047 4.89942 24.801 2.76387 25.9894C2.5335 26.1176 2.30665 26.2439 2.0835 26.3684V8.19503H2.0834ZM2.42481 28.5658C2.86006 28.3206 3.30967 28.0698 3.77706 27.8098C5.5211 26.8392 7.43918 25.7715 9.27053 24.5818C9.56936 25.6455 9.84143 26.5597 10.0899 27.3942C11.1792 31.0527 11.8073 33.163 12.305 39.9916C8.54426 38.7895 4.31114 32.1125 2.42481 28.5658ZM35.5641 40.5928C34.5668 41.1457 33.6209 41.5952 32.6757 41.9558C32.6674 40.0767 32.8054 37.9826 32.9025 36.7536C32.9478 36.1801 32.5198 35.6783 31.9462 35.633C31.3728 35.5876 30.8709 36.0158 30.8255 36.5894C30.7145 37.9917 30.5524 40.4894 30.6008 42.6046C28.9268 43.014 27.1462 43.1852 25.0002 43.1852C20.7071 43.1852 17.8765 42.5003 14.4361 40.5928C13.9126 32.9328 13.2187 30.6021 12.0866 26.8C11.7888 25.7996 11.4567 24.684 11.0862 23.3341C15.2136 20.3148 18.3614 16.5618 17.0688 11.7374C17.066 11.7269 17.0626 11.7166 17.0598 11.7061C18.5178 11.5027 20.598 11.3437 22.5406 11.2992C23.1157 11.286 23.5714 10.8091 23.5583 10.234C23.5452 9.6588 23.0641 9.20636 22.493 9.21632C20.1916 9.26895 17.7593 9.47179 16.1912 9.73136C15.7005 8.96261 15.0563 8.28868 14.2611 7.71172C16.7429 7.10323 20.2378 6.81504 25.0001 6.81504C29.7621 6.81504 33.2572 7.10333 35.7389 7.71163C34.3131 8.74591 33.372 10.0914 32.9312 11.7373C31.6386 16.5616 34.7862 20.3145 38.9137 23.3337C38.5429 24.6841 38.2109 25.8001 37.9131 26.8008C36.7812 30.6029 36.0875 32.9332 35.5641 40.5928ZM44.1424 34.0789C41.8002 37.3263 39.5586 39.3681 37.6957 39.983C38.1931 33.162 38.8211 31.052 39.9097 27.3953C40.1584 26.5605 40.4304 25.646 40.7293 24.5818C42.5608 25.7715 44.4789 26.8393 46.2231 27.81C46.6885 28.069 47.1365 28.3186 47.5701 28.5629C46.9412 29.7316 45.7046 31.913 44.1424 34.0789ZM47.9167 26.3684C47.6937 26.2439 47.4669 26.1176 47.2365 25.9894C45.1071 24.8044 42.7855 23.5121 40.7189 22.0706C40.7104 22.0644 40.7016 22.0584 40.6927 22.0524C39.7182 21.3713 38.8007 20.657 37.9881 19.9049C35.2444 17.3658 34.2487 14.8705 34.9436 12.2765C35.4093 10.5381 36.6527 9.27589 38.7327 8.438C38.741 8.43448 38.7496 8.43194 38.7579 8.42823C39.0466 8.3128 39.3508 8.20518 39.6718 8.10596C42.1423 7.34083 45.0549 7.21719 47.3163 7.19512L47.3442 7.19502C47.6888 7.19502 47.7807 7.25909 47.7807 7.25909C47.7821 7.26055 47.9166 7.40928 47.9166 8.19522V26.3684H47.9167Z" fill="#DFAB7B"/>
<path d="M8.89901 17.2283C10.6222 17.2283 12.024 15.8264 12.024 14.1031C12.024 12.3799 10.6222 10.9779 8.89901 10.9779C7.17566 10.9779 5.7738 12.3799 5.7738 14.1031C5.7738 15.8264 7.17566 17.2283 8.89901 17.2283ZM8.89901 13.0614C9.47323 13.0614 9.94051 13.5287 9.94051 14.1031C9.94051 14.6775 9.47323 15.1448 8.89901 15.1448C8.32459 15.1448 7.8573 14.6775 7.8573 14.1031C7.8573 13.5288 8.32459 13.0614 8.89901 13.0614Z" fill="#DFAB7B"/>
<path d="M41.1539 10.978C39.4306 10.978 38.0287 12.38 38.0287 14.1032C38.0287 15.8265 39.4306 17.2284 41.1539 17.2284C42.8773 17.2284 44.2791 15.8265 44.2791 14.1032C44.2791 12.38 42.8773 10.978 41.1539 10.978ZM41.1539 15.1449C40.5795 15.1449 40.1122 14.6776 40.1122 14.1032C40.1122 13.5288 40.5795 13.0615 41.1539 13.0615C41.7284 13.0615 42.1956 13.5288 42.1956 14.1032C42.1956 14.6776 41.7284 15.1449 41.1539 15.1449Z" fill="#DFAB7B"/>
<path d="M25.6331 9.2557L25.6072 9.25424C25.033 9.2186 24.5405 9.65375 24.5034 10.2269C24.4663 10.8011 24.9018 11.2965 25.476 11.3336C25.4809 11.3339 25.4939 11.3346 25.5019 11.335C25.5228 11.3363 25.5436 11.3369 25.5644 11.3369C26.1078 11.3368 26.5657 10.9152 26.6028 10.3648C26.6413 9.79086 26.2073 9.29418 25.6331 9.2557Z" fill="#DFAB7B"/>
<path d="M32.2997 32.6459C31.7296 32.5708 31.2057 32.9712 31.1301 33.5416L31.1173 33.6405C31.0449 34.2112 31.4488 34.7325 32.0196 34.805C32.0642 34.8107 32.1084 34.8134 32.152 34.8134C32.6688 34.8134 33.1175 34.4289 33.1842 33.9026L33.1954 33.8155C33.2711 33.2452 32.87 32.7216 32.2997 32.6459Z" fill="#DFAB7B"/>
</g>
<defs>
<clipPath id="clip0">
<rect width="50" height="50" fill="white"/>
</clipPath>
</defs>
</svg>
