<svg width="40" height="70" viewBox="0 0 40 70" fill="none" xmlns="http://www.w3.org/2000/svg">
<g clip-path="url(#clip0)">
<path d="M14.119 31.958C14.5097 32.1242 14.9219 31.7643 14.6827 31.4665C13.3842 29.8498 12.1547 27.1294 14.1136 23.6258C17.3804 17.7834 19.3683 14.7574 19.3683 14.7574C19.3683 14.7574 20.4256 18.2887 23.2918 21.4285C26.0503 24.4504 27.5601 28.2509 25.126 31.417C24.8976 31.7141 25.3004 32.0647 25.6886 31.9058C28.7017 30.6728 32.0811 28.1994 32.4624 23.2775C32.603 21.7735 32.3922 19.6678 31.3379 17.0107C29.9822 13.6431 28.3157 12.0717 27.3515 11.3969C27.063 11.195 26.6145 11.3739 26.6381 11.6799C26.9191 15.3136 25.2103 16.2357 24.2377 14.1576C23.8493 13.3276 23.6228 11.892 23.6228 10.1437C23.6228 7.23309 22.5672 4.2369 20.2401 1.80218C19.6349 1.16903 18.9268 0.577394 18.1144 0.0728703C17.8203 -0.109823 17.3939 0.0738115 17.4208 0.37091C17.5995 2.34404 17.4376 7.9989 11.2362 14.7547C5.61343 21.0214 7.79225 25.8342 8.56539 27.1377C10.0436 29.635 12.1054 31.1015 14.119 31.958Z" fill="#D87171"/>
</g>
<g clip-path="url(#clip1)">
<path d="M37.8754 34.0891L37.8368 34.0893C35.9141 34.1082 33.4273 34.2165 31.2445 34.8924C31.0492 34.9529 30.8599 35.0175 30.6757 35.0852C28.4626 34.1878 25.1414 33.7852 20.0001 33.7852C14.8588 33.7852 11.5372 34.1878 9.32439 35.0853C9.13994 35.0175 8.95088 34.9529 8.75556 34.8924C6.5729 34.2166 4.08587 34.1082 2.16313 34.0893L2.12454 34.0891C0 34.0891 0 35.9459 0 36.556V52.5235C0 52.528 0.000859377 52.5322 0.00101563 52.5368C0.00132813 52.5648 0.00328126 52.593 0.00648439 52.6213C0.00734376 52.6274 0.00765627 52.6336 0.00843752 52.6397C0.0132032 52.6732 0.0196875 52.7064 0.0285938 52.7396C0.0292969 52.7424 0.0303907 52.745 0.0311719 52.7479C0.0391407 52.7762 0.0487501 52.8042 0.0598439 52.8319C0.0637501 52.8418 0.0682033 52.8512 0.0723439 52.8609C0.0771095 52.8716 0.0810158 52.8823 0.0861721 52.8929C0.140157 53.0021 1.43063 55.5988 3.3343 58.2383C5.90993 61.8093 8.324 63.6799 10.514 63.8043C13.6078 65.5587 16.2018 66.2149 20 66.2149C22.1192 66.2149 23.8631 66.0101 25.5283 65.5251C25.5609 65.5176 25.5929 65.5086 25.624 65.4973C26.9093 65.1139 28.1513 64.5612 29.4859 63.8044C31.6759 63.6799 34.09 61.8094 36.6656 58.2384C38.5694 55.599 39.8596 53.0022 39.9137 52.8929C39.919 52.8825 39.9228 52.8717 39.9276 52.861C39.9318 52.8513 39.9362 52.8418 39.9401 52.832C39.9513 52.8043 39.9611 52.7762 39.9689 52.748C39.9698 52.7452 39.9709 52.7425 39.9716 52.7396C39.9805 52.7066 39.987 52.6732 39.9916 52.6397C39.9925 52.6336 39.993 52.6275 39.9936 52.6213C39.997 52.5931 39.9988 52.5649 39.9993 52.5367C39.9993 52.5322 40.0002 52.528 40.0002 52.5235V36.556C40 35.9459 40 34.0891 37.8754 34.0891ZM1.66672 36.556C1.66672 35.9274 1.7743 35.8081 1.77485 35.8077C1.77547 35.8072 1.84907 35.7559 2.12446 35.7559L2.1468 35.756C3.95595 35.7738 6.28618 35.8726 8.26252 36.4846C8.51939 36.5642 8.76291 36.6502 8.994 36.7427C9.00002 36.7454 9.00635 36.7473 9.01244 36.7499C10.6773 37.4202 11.6724 38.4299 12.0452 39.8212C12.6012 41.8963 11.8046 43.8925 9.60979 45.9239C8.96181 46.5235 8.23049 47.0932 7.45392 47.6364C7.449 47.6396 7.44416 47.6431 7.43939 47.6465C5.78251 48.8038 3.91954 49.8408 2.2111 50.7915C2.0268 50.8941 1.84532 50.9951 1.6668 51.0947V36.556H1.66672ZM1.93985 52.8526C2.28805 52.6564 2.64774 52.4558 3.02165 52.2479C4.41688 51.4714 5.95134 50.6172 7.41642 49.6654C7.65548 50.5164 7.87314 51.2478 8.07189 51.9153C8.94338 54.8422 9.4458 56.5304 9.844 61.9933C6.8354 61.0316 3.44891 55.69 1.93985 52.8526ZM28.4513 62.4742C27.6534 62.9165 26.8967 63.2762 26.1405 63.5647C26.1339 62.0614 26.2443 60.3861 26.322 59.4029C26.3583 58.9441 26.0158 58.5426 25.5569 58.5064C25.0983 58.4701 24.6967 58.8126 24.6604 59.2715C24.5716 60.3933 24.4419 62.3915 24.4807 64.0837C23.1415 64.4112 21.717 64.5482 20.0001 64.5482C16.5657 64.5482 14.3012 64.0002 11.5489 62.4743C11.1301 56.3462 10.5749 54.4817 9.66932 51.44C9.43103 50.6396 9.16533 49.7472 8.86892 48.6673C12.1709 46.2518 14.6891 43.2495 13.655 39.3899C13.6528 39.3815 13.6501 39.3733 13.6478 39.3649C14.8142 39.2021 16.4784 39.0749 18.0325 39.0394C18.4925 39.0288 18.8571 38.6473 18.8467 38.1872C18.8361 37.727 18.4513 37.3651 17.9944 37.3731C16.1533 37.4152 14.2075 37.5774 12.953 37.7851C12.5604 37.1701 12.045 36.6309 11.4089 36.1694C13.3943 35.6826 16.1903 35.452 20 35.452C23.8097 35.452 26.6058 35.6827 28.5912 36.1693C27.4504 36.9967 26.6976 38.0731 26.345 39.3899C25.3109 43.2493 27.829 46.2516 31.1309 48.667C30.8344 49.7473 30.5687 50.6401 30.3305 51.4407C29.425 54.4823 28.87 56.3465 28.4513 62.4742ZM35.3139 57.2631C33.4401 59.8611 31.6469 61.4945 30.1565 61.9864C30.5545 56.5296 31.0569 54.8416 31.9278 51.9162C32.1267 51.2484 32.3443 50.5168 32.5834 49.6654C34.0487 50.6172 35.5831 51.4714 36.9785 52.248C37.3508 52.4552 37.7092 52.6549 38.0561 52.8504C37.553 53.7853 36.5637 55.5304 35.3139 57.2631ZM38.3334 51.0947C38.1549 50.9951 37.9735 50.8941 37.7892 50.7915C36.0857 49.8435 34.2284 48.8096 32.5751 47.6565C32.5683 47.6515 32.5613 47.6467 32.5541 47.6419C31.7746 47.0971 31.0405 46.5256 30.3905 45.9239C28.1955 43.8927 27.399 41.8964 27.9549 39.8212C28.3275 38.4305 29.3222 37.4207 30.9862 36.7504C30.9928 36.7476 30.9997 36.7456 31.0063 36.7426C31.2373 36.6502 31.4806 36.5641 31.7374 36.4848C33.7138 35.8727 36.0439 35.7738 37.853 35.7561L37.8754 35.756C38.151 35.756 38.2245 35.8073 38.2245 35.8073C38.2257 35.8084 38.3333 35.9274 38.3333 36.5562V51.0947H38.3334Z" fill="#D87171"/>
<path d="M7.11918 43.7827C8.4977 43.7827 9.61919 42.6611 9.61919 41.2825C9.61919 39.9039 8.4977 38.7823 7.11918 38.7823C5.74051 38.7823 4.61902 39.9039 4.61902 41.2825C4.61902 42.6611 5.74051 43.7827 7.11918 43.7827ZM7.11918 40.4491C7.57856 40.4491 7.95239 40.823 7.95239 41.2825C7.95239 41.742 7.57856 42.1159 7.11918 42.1159C6.65965 42.1159 6.28582 41.742 6.28582 41.2825C6.28582 40.8231 6.65965 40.4491 7.11918 40.4491Z" fill="#D87171"/>
<path d="M32.9231 38.7825C31.5445 38.7825 30.423 39.904 30.423 41.2826C30.423 42.6612 31.5445 43.7828 32.9231 43.7828C34.3018 43.7828 35.4233 42.6612 35.4233 41.2826C35.4233 39.904 34.3018 38.7825 32.9231 38.7825ZM32.9231 42.116C32.4636 42.116 32.0898 41.7422 32.0898 41.2826C32.0898 40.8231 32.4636 40.4493 32.9231 40.4493C33.3827 40.4493 33.7565 40.8231 33.7565 41.2826C33.7565 41.7422 33.3827 42.116 32.9231 42.116Z" fill="#D87171"/>
<path d="M20.5065 37.4047L20.4858 37.4035C20.0264 37.375 19.6324 37.7231 19.6027 38.1816C19.573 38.641 19.9214 39.0373 20.3808 39.067C20.3847 39.0672 20.3951 39.0678 20.4015 39.0681C20.4182 39.0691 20.4348 39.0696 20.4515 39.0696C20.8862 39.0695 21.2526 38.7322 21.2823 38.2919C21.313 37.8328 20.9658 37.4354 20.5065 37.4047Z" fill="#D87171"/>
<path d="M25.8397 56.1167C25.3836 56.0567 24.9645 56.377 24.904 56.8333L24.8938 56.9124C24.8359 57.369 25.159 57.7861 25.6157 57.844C25.6514 57.8486 25.6867 57.8507 25.7216 57.8507C26.135 57.8507 26.494 57.5432 26.5473 57.1221L26.5563 57.0524C26.6169 56.5962 26.296 56.1773 25.8397 56.1167Z" fill="#D87171"/>
</g>
<defs>
<clipPath id="clip0">
<rect width="40" height="32" fill="white"/>
</clipPath>
<clipPath id="clip1">
<rect width="40" height="40" fill="white" transform="translate(0 30)"/>
</clipPath>
</defs>
</svg>
