<svg width="53" height="53" viewBox="0 0 53 53" fill="none" xmlns="http://www.w3.org/2000/svg">
<g clip-path="url(#clip0)">
<path d="M50.1849 5.41816L50.1338 5.41837C47.5861 5.44342 44.2911 5.58689 41.399 6.48251C41.1402 6.56263 40.8894 6.64824 40.6453 6.73799C37.713 5.5489 33.3123 5.01538 26.5002 5.01538C19.6879 5.01538 15.2868 5.5489 12.3548 6.73809C12.1104 6.64824 11.8599 6.56263 11.6011 6.48251C8.7091 5.587 5.41377 5.44342 2.86615 5.41837L2.81501 5.41816C0 5.41816 0 7.87842 0 8.68678V29.8437C0 29.8497 0.00113867 29.8552 0.00134571 29.8613C0.00175977 29.8984 0.00434766 29.9358 0.00859181 29.9733C0.00973049 29.9813 0.0101446 29.9895 0.0111797 29.9977C0.0174942 30.042 0.026086 30.0861 0.0378868 30.13C0.0388184 30.1337 0.0402677 30.1372 0.0413028 30.1411C0.0518614 30.1785 0.0645939 30.2156 0.0792931 30.2523C0.0844689 30.2654 0.0903693 30.2779 0.0958557 30.2907C0.10217 30.3049 0.107346 30.3191 0.114178 30.3331C0.185707 30.4778 1.89558 33.9185 4.41795 37.4158C7.83066 42.1473 11.0293 44.6259 13.9311 44.7907C18.0303 47.1153 21.4674 47.9848 26.5001 47.9848C29.3079 47.9848 31.6186 47.7135 33.825 47.0709C33.8682 47.0608 33.9106 47.0489 33.9518 47.034C35.6548 46.526 37.3005 45.7937 39.0688 44.7908C41.9706 44.6259 45.1692 42.1474 48.5819 37.4159C51.1044 33.9188 52.814 30.478 52.8857 30.3332C52.8927 30.3193 52.8977 30.305 52.904 30.2908C52.9096 30.278 52.9154 30.2655 52.9206 30.2524C52.9355 30.2157 52.9485 30.1785 52.9588 30.1412C52.9599 30.1374 52.9614 30.1339 52.9624 30.1301C52.9742 30.0863 52.9827 30.0421 52.9889 29.9977C52.9901 29.9896 52.9907 29.9814 52.9915 29.9733C52.9961 29.9359 52.9985 29.8985 52.9991 29.8611C52.9991 29.8552 53.0002 29.8497 53.0002 29.8437V8.68678C53 7.87842 53 5.41816 50.1849 5.41816ZM2.20841 8.68678C2.20841 7.85389 2.35095 7.69582 2.35167 7.6952C2.3525 7.69458 2.45001 7.62667 2.81491 7.62667L2.84451 7.62678C5.24163 7.65027 8.3292 7.78122 10.9478 8.59216C11.2882 8.69765 11.6109 8.81162 11.9171 8.93408C11.925 8.9377 11.9334 8.94018 11.9415 8.9436C14.1474 9.83187 15.466 11.1697 15.9599 13.0131C16.6966 15.7627 15.641 18.4076 12.733 21.0992C11.8744 21.8937 10.9054 22.6485 9.87645 23.3682C9.86992 23.3726 9.86351 23.3771 9.85719 23.3817C7.66183 24.9151 5.19339 26.2891 2.92971 27.5488C2.68551 27.6847 2.44504 27.8186 2.20851 27.9506V8.68678H2.20841ZM2.5703 30.2798C3.03167 30.0198 3.50826 29.754 4.00368 29.4785C5.85237 28.4496 7.88553 27.3179 9.82676 26.0567C10.1435 27.1843 10.4319 28.1533 10.6953 29.0379C11.85 32.9159 12.5157 35.1529 13.0433 42.3911C9.05691 41.1169 4.56981 34.0393 2.5703 30.2798ZM37.698 43.0284C36.6408 43.6145 35.6381 44.091 34.6362 44.4732C34.6274 42.4814 34.7738 40.2616 34.8767 38.9588C34.9247 38.351 34.471 37.819 33.8629 37.771C33.2552 37.7229 32.7231 38.1768 32.675 38.7848C32.5574 40.2712 32.3855 42.9188 32.4369 45.1609C30.6624 45.5949 28.775 45.7764 26.5002 45.7764C21.9495 45.7764 18.9491 45.0503 15.3022 43.0285C14.7474 34.9088 14.0118 32.4383 12.8118 28.4081C12.4961 27.3476 12.1441 26.1651 11.7513 24.7342C16.1264 21.5337 19.463 17.5556 18.0929 12.4417C18.0899 12.4305 18.0864 12.4197 18.0834 12.4085C19.6289 12.1929 21.8339 12.0243 23.893 11.9772C24.5026 11.9633 24.9857 11.4577 24.9718 10.8481C24.9579 10.2384 24.448 9.75879 23.8426 9.76935C21.4031 9.82514 18.8249 10.0401 17.1627 10.3153C16.6426 9.50041 15.9597 8.78605 15.1167 8.17448C17.7475 7.52947 21.4521 7.22399 26.5001 7.22399C31.5478 7.22399 35.2526 7.52957 37.8833 8.17437C36.3718 9.27071 35.3744 10.697 34.9071 12.4416C33.537 17.5554 36.8734 21.5334 41.2485 24.7338C40.8555 26.1652 40.5036 27.3482 40.1878 28.4089C38.9881 32.4391 38.2527 34.9092 37.698 43.0284ZM46.7909 36.1236C44.3082 39.566 41.9321 41.7303 39.9574 42.382C40.4847 35.1517 41.1503 32.9152 42.3043 29.039C42.5679 28.1542 42.8562 27.1848 43.173 26.0567C45.1145 27.3179 47.1476 28.4497 48.9965 29.4787C49.4898 29.7532 49.9647 30.0178 50.4243 30.2768C49.7577 31.5155 48.4469 33.8279 46.7909 36.1236ZM50.7917 27.9506C50.5553 27.8186 50.3149 27.6847 50.0707 27.5488C47.8135 26.2928 45.3527 24.9228 43.1621 23.3949C43.1531 23.3883 43.1437 23.382 43.1342 23.3756C42.1013 22.6537 41.1287 21.8964 40.2673 21.0993C37.3591 18.4078 36.3036 15.7628 37.0402 13.0131C37.5339 11.1704 38.8519 9.83249 41.0567 8.94432C41.0655 8.9406 41.0746 8.93791 41.0834 8.93397C41.3894 8.81162 41.7118 8.69754 42.0521 8.59237C44.6708 7.78132 47.7582 7.65027 50.1553 7.62688L50.1849 7.62678C50.5501 7.62678 50.6475 7.69468 50.6475 7.69468C50.6491 7.69623 50.7916 7.85389 50.7916 8.68698V27.9506H50.7917Z" fill="#ADADAD"/>
<path d="M9.43295 18.2621C11.2595 18.2621 12.7455 16.7761 12.7455 14.9494C12.7455 13.1228 11.2595 11.6367 9.43295 11.6367C7.60621 11.6367 6.12024 13.1228 6.12024 14.9494C6.12024 16.7761 7.60621 18.2621 9.43295 18.2621ZM9.43295 13.8452C10.0416 13.8452 10.537 14.3406 10.537 14.9494C10.537 15.5583 10.0416 16.0536 9.43295 16.0536C8.82407 16.0536 8.32875 15.5583 8.32875 14.9494C8.32875 14.3407 8.82407 13.8452 9.43295 13.8452Z" fill="#ADADAD"/>
<path d="M43.6232 11.6368C41.7965 11.6368 40.3105 13.1229 40.3105 14.9496C40.3105 16.7762 41.7965 18.2623 43.6232 18.2623C45.4499 18.2623 46.9359 16.7762 46.9359 14.9496C46.9359 13.1229 45.4499 11.6368 43.6232 11.6368ZM43.6232 16.0538C43.0143 16.0538 42.519 15.5584 42.519 14.9496C42.519 14.3407 43.0143 13.8454 43.6232 13.8454C44.2321 13.8454 44.7274 14.3407 44.7274 14.9496C44.7274 15.5584 44.2321 16.0538 43.6232 16.0538Z" fill="#ADADAD"/>
<path d="M27.1711 9.81109L27.1436 9.80954C26.535 9.77175 26.0129 10.233 25.9736 10.8406C25.9343 11.4492 26.3958 11.9744 27.0045 12.0137C27.0097 12.014 27.0235 12.0147 27.0319 12.0152C27.0541 12.0165 27.0761 12.0171 27.0982 12.0171C27.6743 12.017 28.1596 11.5701 28.199 10.9867C28.2398 10.3784 27.7797 9.85188 27.1711 9.81109Z" fill="#ADADAD"/>
<path d="M34.2377 34.6047C33.6333 34.5251 33.078 34.9495 32.9979 35.5541L32.9843 35.659C32.9076 36.264 33.3357 36.8165 33.9408 36.8933C33.9881 36.8993 34.0349 36.9022 34.0811 36.9022C34.629 36.9022 35.1045 36.4947 35.1752 35.9368L35.1871 35.8445C35.2673 35.24 34.8422 34.6849 34.2377 34.6047Z" fill="#ADADAD"/>
</g>
<defs>
<clipPath id="clip0">
<rect width="53" height="53" fill="white"/>
</clipPath>
</defs>
</svg>
