<?xml version="1.0" encoding="iso-8859-1"?>
<!-- Generator: Adobe Illustrator 21.0.0, SVG Export Plug-In . SVG Version: 6.00 Build 0)  -->
<svg xmlns="http://www.w3.org/2000/svg" xmlns:xlink="http://www.w3.org/1999/xlink" version="1.1" id="Capa_1" x="0px" y="0px" viewBox="0 0 511.318 511.318" style="enable-background:new 0 0 511.318 511.318;" xml:space="preserve" width="512" height="512">
<g>
	<path d="M391.546,157.171c15.222-26.358,21.114-53.059,17.517-79.359c-3.25-23.758-12.556-42.799-27.659-56.592   C368.186,9.149,351.221,1.93,332.342,0.343c-17.826-1.502-36.008,2.245-51.183,10.544c-10.71,5.856-19.417,13.763-25.5,22.993   c-6.083-9.231-14.79-17.137-25.5-22.993C214.985,2.588,196.81-1.158,178.976,0.343c-18.879,1.587-35.845,8.806-49.061,20.877   c-15.104,13.793-24.409,32.834-27.659,56.592c-3.339,24.409,1.506,49.21,14.401,73.714c10.344,19.656,25.933,39.236,46.332,58.198   c3.035,2.821,7.78,2.645,10.6-0.387c2.82-3.034,2.646-7.78-0.387-10.6c-42.592-39.589-61.462-79.59-56.085-118.893   c5.135-37.532,28.728-61.665,63.115-64.555c31.309-2.641,60.645,13.737,68.27,38.073c0.969,3.092,3.917,5.257,7.157,5.257   c3.241,0,6.188-2.164,7.157-5.257c7.626-24.335,36.968-40.713,68.27-38.073c34.387,2.89,57.98,27.022,63.115,64.555   c3.13,22.882-2.108,46.33-15.569,69.694c-11.033,19.15-27.559,38.294-49.116,56.898c-30.961,26.719-63.6,44.667-73.859,50.023   c-8.73-4.552-33.657-18.209-59.985-38.675c-3.27-2.541-7.981-1.953-10.524,1.319c-2.542,3.27-1.951,7.981,1.319,10.524   c33.778,26.257,64.617,41.364,65.914,41.994c2.053,0.997,4.506,0.997,6.559,0c1.677-0.815,41.505-20.346,80.138-53.624   C361.975,198.275,379.629,177.809,391.546,157.171z"/>
	<path d="M197.252,124.811c8.025,0,14.554-6.528,14.554-14.554c0-8.024-6.528-14.553-14.554-14.553   c-8.024,0-14.553,6.528-14.553,14.553C182.699,118.283,189.227,124.811,197.252,124.811z"/>
	<path d="M328.619,110.257c0-8.024-6.528-14.553-14.553-14.553c-8.025,0-14.554,6.528-14.554,14.553   c0,8.025,6.528,14.554,14.554,14.554C322.091,124.811,328.619,118.283,328.619,110.257z"/>
	<path d="M255.659,159.63c14.669,0,27.47-9.4,31.852-23.392c1.238-3.952-0.963-8.16-4.916-9.398   c-3.954-1.238-8.161,0.963-9.398,4.916c-2.412,7.7-9.459,12.874-17.537,12.874c-8.078,0-15.125-5.174-17.537-12.874   c-1.238-3.952-5.447-6.152-9.398-4.916c-3.953,1.238-6.154,5.446-4.916,9.398C228.189,150.23,240.99,159.63,255.659,159.63z"/>
	<path d="M507.846,195.461c-3.511-5.59-9.268-9.361-15.795-10.349c-9.408-1.424-18.419,3.114-22.99,11.072   c-2.402-1.647-5.15-2.789-8.078-3.309c-10.122-1.809-20.156,4.221-23.321,14.011l-3.515,10.868   c-1.896-1.262-3.992-2.231-6.23-2.808c-10.626-2.739-21.498,3.324-24.754,13.805l-2.302,7.414   c-2.503-1.695-5.368-2.854-8.423-3.355c-10.363-1.698-20.248,4.317-23.501,14.304l-23.81,73.117   c-8.608,3.841-31.26,15.609-47.846,39.172c-20.226,28.732-23.841,64.228-23.985,65.725c-0.022,0.238-0.034,0.477-0.034,0.718   v77.954c0,4.143,3.357,7.5,7.5,7.5h86.404c4.143,0,7.5-3.357,7.5-7.5v-53.717l55.208-45.083   c29.823-24.353,42.194-65.564,53.11-101.924c1.218-4.058,6.975-22.842,6.975-22.842c1.219-3.959-1.001-8.156-4.96-9.377   c-3.957-1.218-8.156,1.001-9.375,4.96c0,0-5.777,18.853-7.007,22.946c-10.296,34.297-21.966,73.17-48.231,94.617l-57.964,47.334   c-1.744,1.425-2.756,3.558-2.756,5.81v49.775h-71.404V426.25c0.398-3.466,4.348-34.151,21.285-58.213   c17.643-25.064,43.984-35.082,44.233-35.175c0.26-0.096,0.514-0.207,0.762-0.331c0.04-0.02,0.077-0.044,0.116-0.065   c0.267-0.139,0.524-0.296,0.772-0.466c0.078-0.053,0.155-0.107,0.231-0.163c0.265-0.197,0.521-0.405,0.759-0.636   c0.016-0.015,0.031-0.029,0.047-0.044l42.626-41.636c2.168-2.245,4.475-4.371,6.708-6.552c1.628-1.59,3.092-3.286,5.416-3.787   c1.888-0.407,3.911-0.029,5.519,1.042c3.38,2.25,4.121,7.162,1.602,10.335l-57.043,71.798c-2.357,2.965-2.132,7.221,0.522,9.922   c2.656,2.702,6.908,2.999,9.912,0.696l30.888-23.673c30.276-23.203,52.055-54.785,62.98-91.332l15.809-52.877   c1.238-3.715,5.167-5.905,8.979-5.039c4.276,0.971,6.883,5.525,5.593,9.712l-11.49,37.289c-1.221,3.959,1,8.156,4.958,9.376   c3.957,1.223,8.157-0.999,9.376-4.958l11.49-37.29C512.256,207.874,511.357,201.051,507.846,195.461z M383.201,251.758   c1.091-3.353,4.875-5.093,8.141-3.774c2.901,1.171,4.449,4.488,3.529,7.473l-7.674,24.715l-19.428,18.978L383.201,251.758z    M412.752,264.004c-1.71,0-3.385,0.216-5.012,0.592l9.749-31.397c0.88-2.83,3.818-4.47,6.685-3.727   c1.497,0.386,2.731,1.344,3.477,2.698c0.744,1.352,0.893,2.906,0.42,4.375l-9.166,28.34c-1.892-0.544-3.862-0.856-5.883-0.88   C412.931,264.004,412.842,264.004,412.752,264.004z M433.922,292.559c1.82-6.024,0.998-12.64-2.36-18.073l10.774-33.311   c0.001-0.002,0.002-0.005,0.003-0.007c0.001-0.002,0.001-0.005,0.002-0.007l9.593-29.659c0.872-2.696,3.636-4.354,6.424-3.858   c2.188,0.39,3.354,1.811,3.854,2.622c0.501,0.813,1.245,2.494,0.608,4.624c0,0.001-0.001,0.002-0.001,0.003l-11.594,38.78   C447.097,267.481,441.278,280.516,433.922,292.559z"/>
	<path d="M214.038,359.403c-16.587-23.564-39.239-35.332-47.847-39.172l-23.81-73.117c-3.252-9.987-13.138-16.005-23.502-14.304   c-3.054,0.501-5.919,1.66-8.422,3.355l-2.303-7.415c-3.255-10.48-14.128-16.546-24.754-13.804   c-2.237,0.577-4.333,1.546-6.229,2.808l-3.515-10.868c-3.164-9.789-13.187-15.817-23.32-14.011   c-2.928,0.52-5.675,1.662-8.078,3.309c-4.569-7.958-13.575-12.497-22.99-11.072c-6.526,0.987-12.284,4.759-15.795,10.349   c-3.512,5.59-4.41,12.413-2.466,18.721l23.696,76.9c1.21,3.927,2.413,7.936,3.631,11.993c10.916,36.359,23.287,77.57,53.11,101.924   c3.21,2.618,7.934,2.145,10.554-1.065c2.619-3.209,2.143-7.934-1.065-10.554c-26.266-21.447-37.936-60.32-48.231-94.617   c-1.229-4.094-2.442-8.137-3.664-12.099l-23.696-76.9c-1.361-4.418,1.609-9.131,6.169-9.819c3.691-0.567,7.223,1.602,8.403,5.147   l15.809,52.877c10.926,36.547,32.704,68.129,62.981,91.332l30.888,23.673c3.008,2.303,7.258,2.006,9.912-0.696   c2.654-2.701,2.879-6.957,0.522-9.922l-57.042-71.798c-2.227-2.803-2.02-6.848,0.481-9.408c2.714-2.779,7.294-2.831,10.072-0.118   l8.675,8.474c0.007,0.007,0.014,0.013,0.021,0.021l42.623,41.633c0.012,0.012,0.024,0.023,0.035,0.034   c0.236,0.23,0.492,0.437,0.756,0.634c0.085,0.063,0.171,0.123,0.258,0.183c0.232,0.158,0.472,0.304,0.72,0.435   c0.054,0.029,0.105,0.063,0.16,0.09c0.241,0.12,0.487,0.228,0.738,0.322c0.264,0.099,26.605,10.116,44.249,35.181   c16.945,24.073,20.89,54.779,21.284,58.212v70.05h-71.404v-49.775c0-2.252-1.012-4.385-2.756-5.81l-34.664-28.307   c-3.21-2.619-7.935-2.142-10.554,1.066c-2.619,3.209-2.143,7.934,1.065,10.554l31.908,26.056v53.717c0,4.143,3.357,7.5,7.5,7.5   h86.404c4.143,0,7.5-3.357,7.5-7.5v-77.954c0-0.24-0.012-0.479-0.034-0.718C237.878,423.63,234.263,388.135,214.038,359.403z    M117.089,250.436c0.548-0.886,1.823-2.431,4.217-2.823c3.008-0.494,5.869,1.251,6.811,4.145l15.433,47.391l-19.428-18.978   l-7.673-24.709C115.733,253.15,116.542,251.321,117.089,250.436z M60.093,253.672l-11.594-38.78c0-0.001,0-0.002-0.001-0.003   c-0.637-2.13,0.107-3.811,0.608-4.624c0.5-0.812,1.667-2.232,3.855-2.622c2.797-0.49,5.551,1.164,6.423,3.858l9.593,29.659   c0.001,0.003,0.001,0.005,0.002,0.007c0.001,0.003,0.002,0.005,0.003,0.007l10.774,33.312c-3.358,5.433-4.18,12.049-2.359,18.074   C70.04,280.517,64.222,267.481,60.093,253.672z M98.299,264.005c-2.021,0.024-3.992,0.336-5.883,0.88l-9.166-28.34   c-0.473-1.469-0.324-3.021,0.42-4.374c0.745-1.354,1.979-2.313,3.477-2.699c2.877-0.74,5.805,0.898,6.684,3.727l9.748,31.392   C101.863,264.195,100.098,263.978,98.299,264.005z"/>
</g>















</svg>
