<svg width="50" height="50" viewBox="0 0 50 50" fill="none" xmlns="http://www.w3.org/2000/svg">
<path d="M50 25C50 11.215 38.785 0 25 0C11.215 0 0 11.215 0 25C0 38.785 11.215 50 25 50C28.0692 50 31.0092 49.4408 33.7275 48.425L33.7175 48.4842L35.1458 47.8483C35.2617 47.7967 35.3742 47.7383 35.4892 47.685C35.6775 47.5975 35.865 47.5092 36.0508 47.4175C36.2458 47.3208 36.4383 47.2217 36.6308 47.12C36.7983 47.0317 36.965 46.9417 37.13 46.85C37.3375 46.7342 37.5433 46.6158 37.7483 46.4942C37.8875 46.4117 38.025 46.3275 38.1617 46.2425C38.3875 46.1025 38.6117 45.9592 38.8333 45.8117C38.9383 45.7417 39.0425 45.67 39.1458 45.5983C39.2933 45.4967 39.4442 45.4 39.59 45.2958L39.9425 45.0417V45.0317C46.0433 40.4683 50 33.1875 50 25ZM37.3092 38.6725C37.7092 40.2383 38.1683 42.2858 38.2558 44.1875C38.2033 44.2242 38.1525 44.2625 38.1 44.2983C37.86 44.4617 37.6158 44.6175 37.37 44.7717C37.1725 44.8958 36.9733 45.0158 36.7725 45.1342C36.51 45.2883 36.2467 45.44 35.9783 45.5833C35.9325 45.6075 35.885 45.63 35.8392 45.655C35.8417 45.63 35.845 45.605 35.8475 45.58C36.0475 43.83 36.3142 41.5108 37.3092 38.6725ZM39.8292 43.0025C39.5942 40.7808 39.0117 38.5717 38.63 37.14C38.5492 36.8367 38.4783 36.57 38.4233 36.3508L38.2558 35.6792C39.88 33.3233 40.8333 30.5167 40.8333 27.5C40.8333 21.755 39.6033 19.62 37.3708 15.7433C36.4733 14.185 35.3567 12.2458 34.0817 9.635C33.88 9.22167 33.3833 9.04917 32.9675 9.25167C32.5542 9.45333 32.3825 9.9525 32.585 10.3658C33.885 13.0275 35.0167 14.995 35.9275 16.575C38.0842 20.3208 39.1667 22.2017 39.1667 27.5C39.1667 34.8517 32.8117 40.8333 25 40.8333C17.1883 40.8333 10.8333 34.8517 10.8333 27.5C10.8333 27.0392 10.46 26.6667 10 26.6667C9.54 26.6667 9.16667 27.0392 9.16667 27.5C9.16667 35.7708 16.2692 42.5 25 42.5C29.0633 42.5 32.7617 41.03 35.5675 38.6383C34.6583 41.4033 34.3892 43.665 34.1908 45.3883C34.1433 45.7992 34.0983 46.1633 34.05 46.5058C31.2658 47.6825 28.2075 48.3333 25 48.3333C12.1342 48.3333 1.66667 37.8658 1.66667 25C1.66667 12.1342 12.1342 1.66667 25 1.66667C37.8658 1.66667 48.3333 12.1342 48.3333 25C48.3333 32.2392 45.0192 38.7192 39.8292 43.0025Z" fill="black"/>
<path d="M25 18.3334C20.405 18.3334 16.6667 22.0717 16.6667 26.6667C16.6667 31.2617 20.405 35 25 35C29.595 35 33.3333 31.2617 33.3333 26.6667C33.3333 22.0717 29.595 18.3334 25 18.3334ZM25 33.3334C21.3242 33.3334 18.3334 30.3425 18.3334 26.6667C18.3334 22.9909 21.3242 20 25 20C28.6759 20 31.6667 22.9909 31.6667 26.6667C31.6667 30.3425 28.6759 33.3334 25 33.3334Z" fill="#DFAB7B"/>
<path d="M25 23.3334C23.1617 23.3334 21.6667 24.8284 21.6667 26.6667C21.6667 28.505 23.1617 30 25 30C26.8384 30 28.3334 28.505 28.3334 26.6667C28.3334 24.8284 26.8384 23.3334 25 23.3334ZM25 28.3334C24.0809 28.3334 23.3334 27.5859 23.3334 26.6667C23.3334 25.7475 24.0809 25 25 25C25.9192 25 26.6667 25.7475 26.6667 26.6667C26.6667 27.5859 25.9192 28.3334 25 28.3334Z" fill="#DFAB7B"/>
</svg>
