<svg width="40" height="40" viewBox="0 0 40 40" fill="none" xmlns="http://www.w3.org/2000/svg">
<path d="M36.5609 35.6066L31.2654 22.8221C31.1305 22.4965 30.7571 22.3417 30.4314 22.4767C30.1057 22.6117 29.951 22.985 30.086 23.3106L34.8733 34.8682L30.5065 33.6029C30.2199 33.5197 29.9138 33.6466 29.7699 33.9081L27.5768 37.8905L22.44 25.4891C28.3688 24.3458 32.861 19.1186 32.861 12.8612C32.8611 5.76953 27.0917 0 20 0C12.9083 0 7.13881 5.76953 7.13881 12.8612C7.13881 15.7336 8.08553 18.3889 9.68315 20.5321L3.43906 35.6066C3.34519 35.8334 3.38953 36.0938 3.55319 36.2766C3.71676 36.4594 3.97081 36.5323 4.20646 36.464L9.35821 34.9711L11.9454 39.6696C12.0581 39.8741 12.2728 40 12.5044 40C12.5162 40 12.528 39.9997 12.5398 39.9991C12.7848 39.9854 13.0003 39.8327 13.0943 39.606L18.042 27.661C18.1769 27.3353 18.0223 26.962 17.6966 26.8271C17.3709 26.6922 16.9975 26.8468 16.8626 27.1725L12.4231 37.8905L10.2301 33.9081C10.0861 33.6466 9.77983 33.5197 9.49336 33.6029L5.12672 34.8682L10.6073 21.6368C12.9561 24.1491 16.2975 25.7223 20 25.7223C20.3822 25.7223 20.7603 25.7045 21.134 25.6717L26.9058 39.606C26.9997 39.8327 27.2152 39.9854 27.4602 39.999C27.4721 39.9997 27.4838 40 27.4957 40C27.7272 40 27.942 39.8741 28.0545 39.6696L30.6419 34.9711L35.7936 36.464C36.0294 36.5323 36.2832 36.4594 36.4469 36.2766C36.6105 36.0938 36.6548 35.8334 36.5609 35.6066ZM8.4154 12.8612C8.4154 6.47345 13.6123 1.2766 20 1.2766C26.3877 1.2766 31.5845 6.47345 31.5845 12.8612C31.5845 19.2489 26.3877 24.4457 20 24.4457C13.6123 24.4457 8.4154 19.2489 8.4154 12.8612Z" fill="#717171"/>
<path d="M27.3752 10.4648C27.3018 10.2386 27.1084 10.072 26.8738 10.0326L22.5787 9.31181L20.566 5.44976C20.4561 5.23879 20.238 5.10645 20 5.10645C19.7621 5.10645 19.5439 5.23879 19.434 5.44976L17.4212 9.31181L13.1262 10.0326C12.8916 10.0719 12.6983 10.2385 12.6248 10.4648C12.5512 10.6911 12.6096 10.9395 12.7763 11.1093L15.8274 14.2169L15.1857 18.5245C15.1506 18.7598 15.2494 18.995 15.4419 19.135C15.6342 19.2747 15.8886 19.2959 16.1015 19.1899L20 17.2485L23.8984 19.1899C23.9885 19.2348 24.0859 19.2569 24.1829 19.2569C24.3154 19.2569 24.4471 19.2157 24.5581 19.135C24.7506 18.9951 24.8494 18.7599 24.8143 18.5246L24.1727 14.217L27.2237 11.1093C27.3904 10.9395 27.4488 10.6911 27.3752 10.4648ZM23.039 13.5494C22.8987 13.6923 22.8336 13.8927 22.8631 14.0906L23.3712 17.5012L20.2846 15.9641C20.1949 15.9195 20.0975 15.8971 20 15.8971C19.9026 15.8971 19.805 15.9194 19.7155 15.9641L16.6288 17.5012L17.1369 14.0906C17.1665 13.8927 17.1014 13.6922 16.9611 13.5494L14.5454 11.0888L17.946 10.5181C18.1434 10.485 18.3139 10.3612 18.4064 10.1836L20 7.12585L21.5936 10.1837C21.6862 10.3613 21.8566 10.4851 22.054 10.5182L25.4547 11.0889L23.039 13.5494Z" fill="#717171"/>
<path d="M29.6691 13.5051C29.3196 13.4583 28.9987 13.7045 28.9525 14.054C28.3604 18.5227 24.5117 21.8926 20 21.8926C15.0201 21.8926 10.9686 17.8412 10.9686 12.8612C10.9686 7.88122 15.0201 3.82982 20 3.82982C24.5118 3.82982 28.3604 7.19969 28.9525 11.6685C28.9987 12.018 29.3202 12.2643 29.6691 12.2174C30.0185 12.1711 30.2644 11.8502 30.218 11.5008C29.5422 6.39986 25.1495 2.55322 20 2.55322C14.3162 2.55322 9.692 7.17731 9.692 12.8612C9.692 18.5451 14.3162 23.1691 20 23.1691C25.1495 23.1691 29.5422 19.3225 30.2181 14.2216C30.2644 13.8722 30.0186 13.5514 29.6691 13.5051Z" fill="#717171"/>
</svg>
