<svg width="61" height="65" viewBox="0 0 61 65" fill="none" xmlns="http://www.w3.org/2000/svg">
<g clip-path="url(#clip0)">
<path d="M21.5315 51.4259C22.1273 51.6933 22.7559 51.1143 22.3911 50.635C20.411 48.0335 18.5359 43.6558 21.5233 38.0181C26.5052 28.6165 29.5367 23.7472 29.5367 23.7472C29.5367 23.7472 31.1491 29.4296 35.52 34.4822C39.7267 39.3449 42.0292 45.4606 38.3172 50.5553C37.9688 51.0335 38.5831 51.5976 39.1751 51.3419C43.77 49.3578 48.9237 45.3777 49.5052 37.4574C49.7196 35.0372 49.3981 31.6489 47.7903 27.3732C45.7229 21.9541 43.1815 19.4254 41.711 18.3395C41.2711 18.0146 40.5871 18.3026 40.6231 18.795C41.0516 24.6422 38.4458 26.126 36.9625 22.782C36.3702 21.4464 36.0247 19.1362 36.0247 16.3229C36.0247 11.6393 34.415 6.81791 30.8661 2.90002C29.9432 1.88117 28.8634 0.929126 27.6244 0.117261C27.1759 -0.176724 26.5257 0.118775 26.5668 0.596858C26.8393 3.77196 26.5924 12.8716 17.1353 23.7428C8.56047 33.827 11.8832 41.5717 13.0622 43.6693C15.3164 47.6877 18.4607 50.0476 21.5315 51.4259Z" fill="#D87171"/>
</g>
<path d="M30.5 37.327C26.5033 37.327 23.2521 40.5782 23.2521 44.5749C23.2521 48.5715 26.5033 51.8227 30.5 51.8227C34.4966 51.8227 37.7478 48.5715 37.7478 44.5749C37.7478 40.5782 34.4966 37.327 30.5 37.327ZM30.5 49.9231C27.5513 49.9231 25.1517 47.5235 25.1517 44.5749C25.1517 41.6262 27.5513 39.2266 30.5 39.2266C33.4486 39.2266 35.8482 41.6262 35.8482 44.5749C35.8482 47.5235 33.4486 49.9231 30.5 49.9231Z" fill="#D87171" stroke="#D87171" stroke-width="0.5"/>
<path d="M30.4999 41.5258C28.8181 41.5258 27.4508 42.8931 27.4508 44.5749C27.4508 46.2567 28.8181 47.624 30.4999 47.624C32.1817 47.624 33.5491 46.2567 33.5491 44.5749C33.5491 42.8931 32.1817 41.5258 30.4999 41.5258ZM30.4999 45.7245C29.8662 45.7245 29.3504 45.2087 29.3504 44.5749C29.3504 43.9411 29.8662 43.4253 30.4999 43.4253C31.1337 43.4253 31.6495 43.9411 31.6495 44.5749C31.6495 45.2087 31.1337 45.7245 30.4999 45.7245Z" fill="#D87171" stroke="#D87171" stroke-width="0.5"/>
<defs>
<clipPath id="clip0">
<rect width="61" height="51.4935" fill="white"/>
</clipPath>
</defs>
</svg>
