<svg width="51" height="51" viewBox="0 0 51 51" fill="none" xmlns="http://www.w3.org/2000/svg">
<path d="M50.3228 25.2937C50.3228 11.4679 39.0747 0.219727 25.2489 0.219727C11.4231 0.219727 0.174866 11.4679 0.174866 25.2937C0.174866 39.1195 11.4231 50.3677 25.2489 50.3677C28.3271 50.3677 31.2758 49.8069 34.0022 48.7881L33.9922 48.8474L35.4247 48.2097C35.5409 48.1579 35.6537 48.0993 35.7691 48.0459C35.958 47.9581 36.146 47.8695 36.3324 47.7776C36.528 47.6806 36.721 47.5812 36.9141 47.4792C37.0821 47.3906 37.2493 47.3003 37.4148 47.2084C37.6229 47.0922 37.8293 46.9735 38.0349 46.8515C38.1745 46.7688 38.3124 46.6843 38.4495 46.5991C38.676 46.4587 38.9008 46.3149 39.1231 46.167C39.2284 46.0968 39.3329 46.0249 39.4366 45.953C39.5845 45.851 39.7358 45.7541 39.882 45.6496L40.2356 45.3947V45.3847C46.3545 40.8078 50.3228 33.5055 50.3228 25.2937ZM37.5945 39.0067C37.9956 40.5772 38.4562 42.6307 38.5439 44.538C38.4913 44.5748 38.4403 44.6132 38.3876 44.6492C38.1469 44.813 37.902 44.9693 37.6555 45.1239C37.4574 45.2484 37.2576 45.3688 37.0562 45.4875C36.7929 45.6421 36.5288 45.7942 36.2597 45.938C36.2137 45.9622 36.1661 45.9848 36.1201 46.0098C36.1226 45.9848 36.126 45.9597 36.1285 45.9346C36.3291 44.1795 36.5965 41.8534 37.5945 39.0067ZM40.1219 43.3495C39.8862 41.1213 39.302 38.9056 38.9192 37.4697C38.8381 37.1654 38.7671 36.898 38.7119 36.6781L38.5439 36.0045C40.1729 33.6417 41.1291 30.8267 41.1291 27.8011C41.1291 22.0391 39.8954 19.8978 37.6563 16.0097C36.7561 14.4467 35.6362 12.5018 34.3574 9.88324C34.1551 9.46869 33.657 9.29568 33.2399 9.49878C32.8254 9.70104 32.6532 10.2017 32.8563 10.6162C34.1602 13.2858 35.2952 15.2591 36.2087 16.8438C38.3717 20.6007 39.4575 22.4871 39.4575 27.8011C39.4575 35.1745 33.0836 41.1739 25.2489 41.1739C17.4141 41.1739 11.0403 35.1745 11.0403 27.8011C11.0403 27.3389 10.6658 26.9653 10.2045 26.9653C9.7431 26.9653 9.36866 27.3389 9.36866 27.8011C9.36866 36.0964 16.4922 42.8455 25.2489 42.8455C29.3242 42.8455 33.0335 41.3712 35.8476 38.9724C34.9358 41.7456 34.6658 44.014 34.4669 45.7424C34.4193 46.1544 34.3741 46.5197 34.3256 46.8632C31.5332 48.0434 28.4659 48.6961 25.2489 48.6961C12.3449 48.6961 1.84647 38.1976 1.84647 25.2937C1.84647 12.3898 12.3449 1.89133 25.2489 1.89133C38.1528 1.89133 48.6513 12.3898 48.6513 25.2937C48.6513 32.5543 45.3273 39.0535 40.1219 43.3495Z" fill="black"/>
<path d="M25.2489 18.6073C20.6403 18.6073 16.8909 22.3567 16.8909 26.9653C16.8909 31.5739 20.6403 35.3233 25.2489 35.3233C29.8575 35.3233 33.6069 31.5739 33.6069 26.9653C33.6069 22.3567 29.8575 18.6073 25.2489 18.6073ZM25.2489 33.6517C21.5622 33.6517 18.5625 30.652 18.5625 26.9653C18.5625 23.2786 21.5622 20.2789 25.2489 20.2789C28.9356 20.2789 31.9353 23.2786 31.9353 26.9653C31.9353 30.652 28.9356 33.6517 25.2489 33.6517Z" fill="#C4C4C4"/>
<path d="M25.2488 23.6222C23.4051 23.6222 21.9056 25.1216 21.9056 26.9654C21.9056 28.8092 23.4051 30.3086 25.2488 30.3086C27.0926 30.3086 28.592 28.8092 28.592 26.9654C28.592 25.1216 27.0926 23.6222 25.2488 23.6222ZM25.2488 28.637C24.327 28.637 23.5772 27.8873 23.5772 26.9654C23.5772 26.0435 24.327 25.2938 25.2488 25.2938C26.1707 25.2938 26.9204 26.0435 26.9204 26.9654C26.9204 27.8873 26.1707 28.637 25.2488 28.637Z" fill="#C4C4C4"/>
</svg>
