<svg width="127" height="23" viewBox="0 0 127 23" fill="none" xmlns="http://www.w3.org/2000/svg">
<path d="M4.626 6.57H0.216V5.31H10.548V6.57H6.12V18H4.626V6.57ZM32.7358 5.31V18H31.2778V12.186H23.6818V18H22.2238V5.31H23.6818V10.926H31.2778V5.31H32.7358ZM51.0744 18.144C49.8984 18.144 48.8724 17.88 47.9964 17.352C47.1324 16.824 46.4664 16.074 45.9984 15.102C45.5304 14.13 45.2964 12.984 45.2964 11.664C45.2964 10.332 45.5244 9.18 45.9804 8.208C46.4484 7.224 47.1144 6.474 47.9784 5.958C48.8544 5.43 49.8864 5.166 51.0744 5.166C52.2624 5.166 53.2884 5.43 54.1524 5.958C55.0284 6.474 55.6944 7.224 56.1504 8.208C56.6184 9.18 56.8524 10.326 56.8524 11.646C56.8524 12.966 56.6184 14.118 56.1504 15.102C55.6824 16.074 55.0104 16.824 54.1344 17.352C53.2704 17.88 52.2504 18.144 51.0744 18.144ZM51.0744 16.884C52.4184 16.884 53.4624 16.434 54.2064 15.534C54.9624 14.622 55.3404 13.326 55.3404 11.646C55.3404 9.966 54.9684 8.676 54.2244 7.776C53.4804 6.876 52.4304 6.426 51.0744 6.426C49.7304 6.426 48.6804 6.882 47.9244 7.794C47.1804 8.694 46.8084 9.978 46.8084 11.646C46.8084 13.314 47.1804 14.604 47.9244 15.516C48.6804 16.428 49.7304 16.884 51.0744 16.884ZM81.3985 5.31V18H80.0485L80.0665 8.172L75.9445 15.984H74.9005L70.7605 8.244L70.7785 18H69.4105V5.31H70.6345L75.4405 14.508L80.1925 5.31H81.3985ZM102.743 14.742H96.1193L94.7153 18H93.2033L98.7833 5.31H100.061L105.641 18H104.147L102.743 14.742ZM102.221 13.518L99.4313 7.02L96.6413 13.518H102.221ZM121.35 18.144C119.37 18.144 117.786 17.61 116.598 16.542L117.174 15.408C117.798 15.936 118.434 16.314 119.082 16.542C119.742 16.77 120.504 16.884 121.368 16.884C122.388 16.884 123.174 16.686 123.726 16.29C124.278 15.894 124.554 15.336 124.554 14.616C124.554 14.196 124.422 13.854 124.158 13.59C123.894 13.326 123.546 13.116 123.114 12.96C122.682 12.804 122.1 12.642 121.368 12.474C120.384 12.246 119.574 12.006 118.938 11.754C118.314 11.502 117.804 11.142 117.408 10.674C117.024 10.206 116.832 9.594 116.832 8.838C116.832 8.118 117.018 7.482 117.39 6.93C117.774 6.366 118.314 5.934 119.01 5.634C119.718 5.322 120.534 5.166 121.458 5.166C122.334 5.166 123.15 5.304 123.906 5.58C124.674 5.856 125.322 6.252 125.85 6.768L125.292 7.902C124.692 7.386 124.08 7.014 123.456 6.786C122.844 6.546 122.178 6.426 121.458 6.426C120.474 6.426 119.7 6.636 119.136 7.056C118.584 7.464 118.308 8.04 118.308 8.784C118.308 9.42 118.554 9.9 119.046 10.224C119.538 10.548 120.282 10.824 121.278 11.052C122.37 11.316 123.228 11.562 123.852 11.79C124.476 12.006 124.992 12.336 125.4 12.78C125.82 13.224 126.03 13.818 126.03 14.562C126.03 15.282 125.838 15.912 125.454 16.452C125.082 16.992 124.542 17.412 123.834 17.712C123.126 18 122.298 18.144 121.35 18.144Z" fill="#717171"/>
</svg>
